<?xml version="1.0" encoding="iso-8859-1"?>
<!-- Generator: Adobe Illustrator 19.0.0, SVG Export Plug-In . SVG Version: 6.00 Build 0)  -->
<svg xmlns="http://www.w3.org/2000/svg" xmlns:xlink="http://www.w3.org/1999/xlink" version="1.1" id="Layer_1" x="0px" y="0px" viewBox="0 0 490 490" style="enable-background:new 0 0 490 490;" xml:space="preserve" width="512" height="512">
<g>
	<path style="fill:#FFCA5E;" d="M0,315.232c0,2.006,0.024,4.008,0.071,6.004c3.611,153.3,273.015,153.299,276.626,0   c0.047-1.996,0.071-3.998,0.071-6.004c0-96.295-54.44-181.689-138.383-234.863C54.44,133.543,0,218.937,0,315.232z"/>
	<path style="fill:#E8A328;" d="M138.453,436.215c-68.25,0-136.5-38.33-138.31-114.98c-0.05-2-0.07-4-0.07-6   c0-96.3,54.44-181.69,138.38-234.87c-41.98,53.18-69.21,138.57-69.21,234.87c0,2,0.01,4,0.04,6   C70.183,397.885,104.313,436.215,138.453,436.215z"/>
	<path style="fill:#FFCA5E;" d="M145.89,315.797c0,2.494,0.029,4.983,0.088,7.465c4.49,190.6,339.444,190.6,343.934,0   c0.058-2.482,0.088-4.971,0.088-7.465C490,196.072,422.314,89.9,317.945,23.788C213.577,89.9,145.89,196.072,145.89,315.797z"/>
	<path style="fill:#E8A328;" d="M317.948,466.215c-84.86,0-169.72-47.65-171.97-142.95c-0.06-2.48-0.09-4.97-0.09-7.47   c0-119.72,67.69-225.9,172.06-292.01c-58.75,66.11-96.85,172.29-96.85,292.01c0,2.5,0.02,4.99,0.05,7.47   C222.408,418.565,270.178,466.215,317.948,466.215z"/>
	<circle style="fill:#FFCE76;" cx="436.133" cy="266.997" r="21.763"/>
	<circle style="fill:#FFCE76;" cx="415.364" cy="335.785" r="37.35"/>
</g>















</svg>
